<svg width="31" height="31" viewBox="0 0 31 31" fill="none" xmlns="http://www.w3.org/2000/svg">
<path d="M14.7328 20.3205L10.8074 16.3952C11.5088 15.1603 12.5318 13.9371 13.8751 12.7294C15.6072 11.1691 18.6646 8.5315 23.0459 4.81666C23.4898 4.44014 24.0591 4.24435 24.6407 4.26818C25.2222 4.29202 25.7736 4.53373 26.1852 4.94532C26.5968 5.35691 26.8385 5.90825 26.8623 6.48984C26.8862 7.07142 26.6904 7.64069 26.3138 8.08458C22.5938 12.4737 19.9575 15.531 18.4024 17.2554C17.1947 18.5949 15.9715 19.6166 14.7328 20.3205ZM9.02876 18.272L12.8585 22.1005L11.0941 24.5624L4.2793 26.8809L6.56684 20.0351L9.02876 18.272Z" fill="white"/>
</svg>
